<?xml version="1.0" encoding="UTF-8"?>
<svg xmlns="http://www.w3.org/2000/svg" xmlns:xlink="http://www.w3.org/1999/xlink" width="75pt" height="74.999997pt" viewBox="0 0 75 74.999997" version="1.2">
<defs>
<clipPath id="clip1">
  <path d="M 12.820312 10.171875 L 67.390625 10.171875 L 67.390625 65.511719 L 12.820312 65.511719 Z M 12.820312 10.171875 "/>
</clipPath>
<clipPath id="clip2">
  <path d="M 9.003906 11.421875 L 59.484375 11.421875 L 59.484375 62.976562 L 9.003906 62.976562 Z M 9.003906 11.421875 "/>
</clipPath>
<clipPath id="clip3">
  <path d="M 9 12 L 67.390625 12 L 67.390625 64 L 9 64 Z M 9 12 "/>
</clipPath>
<clipPath id="clip4">
  <path d="M 9 9.261719 L 67 9.261719 L 67 61 L 9 61 Z M 9 9.261719 "/>
</clipPath>
</defs>
<g id="surface1">
<g clip-path="url(#clip1)" clip-rule="nonzero">
<path style=" stroke:none;fill-rule:nonzero;fill:rgb(36.859131%,78.819275%,79.998779%);fill-opacity:1;" d="M 22.804688 53.980469 L 18.554688 54.726562 L 38.730469 65.519531 L 67.488281 55.019531 L 56.648438 50.28125 C 60.714844 45.414062 63.257812 39.246094 63.257812 33.007812 C 63.257812 19.347656 50.839844 8.125 37.363281 10.546875 C 21.714844 13.355469 12.832031 18.050781 12.832031 31.710938 C 12.832031 39.902344 16.730469 48.449219 22.804688 53.980469 "/>
</g>
<g clip-path="url(#clip2)" clip-rule="nonzero">
<path style=" stroke:none;fill-rule:nonzero;fill:rgb(96.469116%,51.368713%,41.958618%);fill-opacity:1;" d="M 9.894531 23.003906 C 10.339844 22.503906 11.109375 22.460938 11.609375 22.90625 L 12.515625 23.714844 C 13.015625 24.160156 13.058594 24.925781 12.613281 25.425781 L 12.007812 26.105469 C 11.746094 26.394531 11.769531 26.84375 12.0625 27.105469 L 14.753906 29.503906 C 15.046875 29.765625 15.5 29.738281 15.761719 29.445312 L 16.367188 28.765625 C 16.8125 28.269531 17.582031 28.222656 18.082031 28.667969 L 18.988281 29.476562 C 19.488281 29.921875 19.53125 30.6875 19.085938 31.1875 C 17.792969 32.632812 15.570312 32.757812 14.125 31.46875 L 10.175781 27.957031 C 8.730469 26.667969 8.601562 24.449219 9.894531 23.003906 Z M 18.132812 22.320312 C 15.144531 22.320312 12.722656 19.902344 12.722656 16.921875 C 12.722656 13.941406 15.144531 11.527344 18.132812 11.527344 C 21.117188 11.527344 23.539062 13.941406 23.539062 16.921875 C 23.539062 19.902344 21.117188 22.320312 18.132812 22.320312 Z M 48.351562 26.640625 L 48.351562 23.753906 C 48.351562 23.367188 48.664062 23.054688 49.050781 23.054688 L 58.710938 23.054688 C 59.097656 23.054688 59.410156 23.367188 59.410156 23.753906 L 59.410156 27.601562 C 59.410156 27.984375 59.097656 28.300781 58.710938 28.300781 L 46.625 28.300781 Z M 52.339844 19.820312 C 51.828125 19.820312 51.410156 19.40625 51.410156 18.894531 C 51.410156 18.386719 51.828125 17.96875 52.339844 17.96875 C 52.851562 17.96875 53.265625 18.386719 53.265625 18.894531 C 53.265625 19.40625 52.851562 19.820312 52.339844 19.820312 Z M 55.210938 19.820312 C 54.699219 19.820312 54.285156 19.40625 54.285156 18.894531 C 54.285156 18.386719 54.699219 17.96875 55.210938 17.96875 C 55.722656 17.96875 56.140625 18.386719 56.140625 18.894531 C 56.140625 19.40625 55.722656 19.820312 55.210938 19.820312 Z M 58.082031 19.820312 C 57.570312 19.820312 57.15625 19.40625 57.15625 18.894531 C 57.15625 18.386719 57.570312 17.96875 58.082031 17.96875 C 58.59375 17.96875 59.011719 18.386719 59.011719 18.894531 C 59.011719 19.40625 58.59375 19.820312 58.082031 19.820312 Z M 18.5 45.195312 C 18.703125 42.339844 19.078125 37.882812 19.535156 36.058594 C 20.238281 33.277344 22.445312 30.570312 22.445312 30.570312 C 22.464844 30.570312 22.484375 30.570312 22.503906 30.574219 C 22.542969 30.335938 22.613281 30.148438 22.722656 30.019531 C 23.605469 28.980469 26.167969 27.539062 27.9375 26.617188 C 28.957031 26.085938 30.046875 25.726562 31.160156 25.542969 L 31.707031 22.386719 L 35.28125 24.390625 C 35.28125 24.390625 35.449219 25.019531 35.625 25.777344 C 35.683594 25.792969 35.742188 25.808594 35.796875 25.828125 C 37.246094 24.964844 39.140625 25.429688 40.140625 27.054688 C 41.082031 28.578125 42.199219 30.511719 43.285156 32.679688 C 44.890625 35.878906 45.988281 38.679688 46.605469 40.390625 C 46.964844 41.386719 46.511719 42.492188 45.554688 42.953125 L 45.140625 43.152344 C 44.222656 43.59375 43.117188 43.304688 42.535156 42.46875 L 41.566406 41.078125 C 41.554688 41.144531 41.546875 41.210938 41.535156 41.273438 L 39.726562 51.019531 L 24.355469 53.710938 L 25.5625 46.335938 C 25.886719 44.34375 25.691406 42.300781 24.988281 40.410156 C 24.84375 40.023438 24.695312 39.609375 24.539062 39.179688 L 22.511719 46.855469 C 22.203125 48.027344 20.957031 48.683594 19.8125 48.277344 C 18.859375 48.34375 18.074219 47.710938 18.132812 46.785156 C 18.15625 46.484375 18.476562 45.554688 18.5 45.195312 Z M 54.015625 45.773438 C 54.5 45.773438 54.9375 45.976562 55.238281 46.339844 C 55.597656 46.78125 55.730469 47.417969 55.597656 48.082031 C 55.355469 49.300781 54.285156 50.292969 53.214844 50.292969 C 52.726562 50.292969 52.292969 50.09375 51.992188 49.726562 C 51.628906 49.285156 51.496094 48.648438 51.628906 47.984375 C 51.871094 46.765625 52.941406 45.773438 54.015625 45.773438 Z M 38.03125 61.203125 L 38.050781 61.203125 C 38.359375 61.203125 38.640625 61.5625 38.707031 62.042969 C 38.75 62.347656 38.695312 62.632812 38.554688 62.804688 C 38.472656 62.902344 38.371094 62.957031 38.257812 62.964844 L 38.234375 62.964844 C 37.929688 62.964844 37.648438 62.601562 37.578125 62.125 C 37.535156 61.816406 37.59375 61.53125 37.734375 61.363281 C 37.8125 61.265625 37.917969 61.210938 38.03125 61.203125 Z M 38.195312 54.886719 L 28.65625 56.847656 L 37.46875 60.226562 Z M 38.195312 54.886719 "/>
</g>
<path style=" stroke:none;fill-rule:nonzero;fill:rgb(55.688477%,35.688782%,42.749023%);fill-opacity:1;" d="M 31.570312 23.121094 C 31.34375 23.089844 31.121094 23.027344 30.921875 22.914062 C 30.585938 22.726562 30.320312 22.390625 30.292969 22.011719 C 30.265625 21.628906 30.523438 21.222656 30.898438 21.152344 C 30.929688 21.148438 30.960938 21.144531 30.992188 21.144531 C 30.597656 19.882812 30.199219 18.664062 30.523438 18.066406 C 30.894531 17.375 33.621094 13.59375 36.8125 15.535156 C 38.179688 16.363281 38.964844 17.890625 38.9375 19.484375 C 38.945312 19.480469 38.953125 19.472656 38.964844 19.464844 C 39.136719 19.351562 39.402344 19.320312 39.535156 19.484375 C 39.605469 19.578125 39.613281 19.707031 39.609375 19.824219 C 39.585938 20.40625 39.347656 20.957031 39.109375 21.492188 C 39.019531 21.699219 38.878906 21.9375 38.652344 21.9375 C 38.640625 21.9375 38.628906 21.933594 38.617188 21.929688 C 38.171875 23.871094 37.261719 25.789062 35.808594 26.074219 C 33.96875 26.433594 32.167969 24.707031 31.570312 23.121094 Z M 19.589844 48.183594 L 26.863281 52.90625 L 28.464844 54.945312 C 28.464844 54.945312 29.65625 55.660156 30.144531 55.882812 C 30.636719 56.101562 31.148438 56.390625 31.390625 56.390625 C 31.636719 56.390625 31.792969 56.015625 31.523438 55.792969 C 31.257812 55.570312 30.214844 54.945312 30.214844 54.945312 L 29.789062 54.550781 C 29.789062 54.550781 30.875 54.8125 31.101562 54.945312 C 31.332031 55.074219 32.035156 56.234375 32.371094 56.390625 C 32.703125 56.546875 33.148438 56.65625 33.125 56.390625 C 33.101562 56.125 32.148438 54.394531 32.148438 54.394531 L 30.546875 52.929688 L 32.628906 54.417969 C 32.628906 54.417969 33.800781 56.132812 34.183594 56.28125 C 34.570312 56.429688 35.554688 56.445312 34.523438 54.945312 C 34.523438 54.945312 33.777344 53.804688 33.074219 52.863281 L 33.898438 52.902344 L 35.035156 54.816406 C 35.121094 54.957031 35.277344 55.035156 35.441406 55.019531 C 35.730469 54.988281 35.902344 54.679688 35.777344 54.417969 L 35.492188 53.820312 C 36.296875 53.988281 36.6875 53.40625 36.550781 53.160156 C 36.390625 52.878906 34.949219 52.679688 34.949219 52.679688 L 34.628906 52.007812 L 31.53125 51.574219 C 30.683594 51.394531 28.9375 50.867188 28.9375 50.867188 L 23.003906 45.46875 C 20.714844 44.925781 19.710938 46.515625 19.34375 47.382812 C 19.222656 47.675781 19.324219 48.011719 19.589844 48.183594 "/>
<g clip-path="url(#clip3)" clip-rule="nonzero">
<path style=" stroke:none;fill-rule:nonzero;fill:rgb(97.648621%,82.348633%,56.858826%);fill-opacity:1;" d="M 38.035156 61.328125 C 38.28125 61.316406 38.523438 61.640625 38.585938 62.058594 C 38.644531 62.476562 38.492188 62.824219 38.25 62.839844 C 38.007812 62.851562 37.761719 62.523438 37.703125 62.109375 C 37.644531 61.691406 37.792969 61.34375 38.035156 61.328125 Z M 51.875 48.035156 C 52.09375 46.921875 53.054688 46.023438 54.015625 46.023438 C 54.976562 46.023438 55.574219 46.921875 55.355469 48.035156 C 55.132812 49.144531 54.175781 50.042969 53.214844 50.042969 C 52.253906 50.042969 51.652344 49.144531 51.875 48.035156 Z M 30.242188 55.925781 L 27.457031 56.503906 L 27.457031 57.984375 L 37.996094 62.921875 C 38.273438 63.050781 38.589844 63.070312 38.882812 62.972656 L 62.222656 55.335938 C 62.574219 55.222656 62.835938 54.929688 62.917969 54.570312 L 66.996094 36.359375 C 67.058594 36.066406 66.902344 35.769531 66.621094 35.660156 L 65.414062 35.1875 C 65.296875 35.144531 65.171875 35.132812 65.050781 35.164062 L 40.707031 40.972656 C 40.214844 41.089844 39.847656 41.492188 39.777344 41.992188 L 38.042969 54.304688 L 35.777344 54.773438 C 35.71875 54.902344 35.601562 55 35.441406 55.019531 C 35.320312 55.03125 35.203125 54.992188 35.117188 54.910156 L 34.578125 55.023438 C 34.800781 55.359375 34.917969 55.613281 34.960938 55.808594 L 37.898438 55.203125 L 37.265625 59.882812 L 29.542969 56.921875 L 32.304688 56.351562 C 32.136719 56.230469 31.898438 55.925781 31.675781 55.628906 L 31.386719 55.6875 C 31.441406 55.726562 31.492188 55.761719 31.523438 55.792969 C 31.792969 56.015625 31.636719 56.390625 31.390625 56.390625 C 31.164062 56.390625 30.703125 56.140625 30.242188 55.925781 Z M 32.691406 55.417969 L 33.265625 55.296875 C 33.46875 55.566406 33.691406 55.839844 33.875 56.03125 L 33.0625 56.195312 C 32.984375 56.003906 32.84375 55.710938 32.691406 55.417969 Z M 11.089844 22.816406 C 11.164062 22.734375 11.578125 22.980469 12.011719 23.367188 C 12.445312 23.753906 12.738281 24.136719 12.664062 24.21875 C 12.589844 24.300781 12.179688 24.050781 11.746094 23.667969 C 11.308594 23.277344 11.015625 22.898438 11.089844 22.816406 Z M 9.558594 23.382812 C 10.160156 24.472656 11.121094 25.328125 12.277344 25.800781 L 12.613281 25.425781 C 13.058594 24.925781 13.015625 24.160156 12.515625 23.714844 L 11.609375 22.90625 C 11.109375 22.460938 10.339844 22.503906 9.894531 23.003906 Z M 18.132812 21.070312 C 15.839844 21.070312 13.976562 19.210938 13.976562 16.921875 C 13.976562 14.636719 15.839844 12.777344 18.132812 12.777344 C 20.421875 12.777344 22.289062 14.636719 22.289062 16.921875 C 22.289062 19.210938 20.421875 21.070312 18.132812 21.070312 Z M 57.507812 25.675781 C 57.507812 26.050781 57.207031 26.355469 56.832031 26.355469 C 56.457031 26.355469 56.152344 26.050781 56.152344 25.675781 C 56.152344 25.304688 56.457031 25 56.832031 25 C 57.207031 25 57.507812 25.304688 57.507812 25.675781 Z M 54.636719 25.675781 C 54.636719 26.050781 54.335938 26.355469 53.960938 26.355469 C 53.585938 26.355469 53.28125 26.050781 53.28125 25.675781 C 53.28125 25.304688 53.585938 25 53.960938 25 C 54.335938 25 54.636719 25.304688 54.636719 25.675781 Z M 50.410156 25.675781 C 50.410156 25.304688 50.714844 25 51.089844 25 C 51.460938 25 51.765625 25.304688 51.765625 25.675781 C 51.765625 26.050781 51.460938 26.355469 51.089844 26.355469 C 50.714844 26.355469 50.410156 26.050781 50.410156 25.675781 Z M 58.757812 18.894531 C 58.757812 19.269531 58.457031 19.570312 58.082031 19.570312 C 57.707031 19.570312 57.40625 19.269531 57.40625 18.894531 C 57.40625 18.523438 57.707031 18.21875 58.082031 18.21875 C 58.457031 18.21875 58.757812 18.523438 58.757812 18.894531 Z M 55.886719 18.894531 C 55.886719 19.269531 55.585938 19.570312 55.210938 19.570312 C 54.835938 19.570312 54.535156 19.269531 54.535156 18.894531 C 54.535156 18.523438 54.835938 18.21875 55.210938 18.21875 C 55.585938 18.21875 55.886719 18.523438 55.886719 18.894531 Z M 53.015625 18.894531 C 53.015625 19.269531 52.714844 19.570312 52.339844 19.570312 C 51.964844 19.570312 51.660156 19.269531 51.660156 18.894531 C 51.660156 18.523438 51.964844 18.21875 52.339844 18.21875 C 52.714844 18.21875 53.015625 18.523438 53.015625 18.894531 Z M 60.820312 21.515625 L 62.546875 21.515625 L 60.820312 19.859375 L 60.820312 16.972656 C 60.820312 16.585938 60.507812 16.273438 60.121094 16.273438 L 52.035156 16.273438 C 53.046875 15.988281 54.039062 15.710938 55.003906 15.4375 C 54.964844 15.40625 54.925781 15.371094 54.890625 15.339844 C 53.8125 15.644531 52.703125 15.957031 51.574219 16.273438 L 50.460938 16.273438 C 50.144531 16.273438 49.875 16.488281 49.789062 16.777344 C 46.492188 17.707031 43.039062 18.679688 39.597656 19.648438 C 39.605469 19.6875 39.609375 19.730469 39.609375 19.773438 C 43.035156 18.808594 46.476562 17.839844 49.761719 16.914062 C 49.761719 16.933594 49.761719 16.953125 49.761719 16.972656 L 49.761719 20.816406 C 49.761719 20.84375 49.761719 20.867188 49.765625 20.890625 C 46.519531 21.804688 43.125 22.761719 39.738281 23.714844 C 39.777344 22.636719 38.820312 21.410156 38.777344 21.355469 C 38.777344 21.355469 38.773438 21.351562 38.769531 21.351562 C 38.773438 21.351562 38.773438 21.347656 38.773438 21.347656 C 38.917969 21.226562 39.058594 20.898438 39.085938 20.617188 C 39.113281 20.339844 39.019531 20.210938 38.878906 20.324219 C 38.847656 20.632812 38.800781 20.988281 38.742188 21.335938 C 38.742188 21.335938 38.738281 21.335938 38.738281 21.335938 C 38.730469 21.382812 38.722656 21.429688 38.714844 21.476562 C 38.886719 21.707031 39.667969 22.816406 39.609375 23.75 C 39.003906 23.921875 38.398438 24.089844 37.792969 24.261719 C 37.765625 24.3125 37.738281 24.363281 37.710938 24.414062 C 38.339844 24.238281 38.96875 24.0625 39.597656 23.882812 C 39.445312 24.902344 38.4375 25.082031 38.394531 25.089844 C 38.363281 25.09375 38.339844 25.125 38.34375 25.160156 C 38.351562 25.191406 38.375 25.210938 38.40625 25.210938 C 38.410156 25.210938 38.414062 25.210938 38.417969 25.210938 C 38.429688 25.210938 39.570312 25.007812 39.726562 23.878906 C 39.726562 23.867188 39.730469 23.855469 39.730469 23.847656 C 43.125 22.890625 46.535156 21.929688 49.789062 21.015625 C 49.875 21.304688 50.144531 21.515625 50.460938 21.515625 Z M 32.195312 22.882812 C 32.128906 22.921875 32.054688 22.941406 31.96875 22.941406 C 31.832031 22.941406 31.664062 22.890625 31.46875 22.789062 C 31.269531 22.734375 31.074219 22.570312 30.976562 22.367188 C 30.847656 22.097656 30.945312 21.859375 31.1875 21.832031 C 31.433594 21.808594 31.734375 22.003906 31.863281 22.269531 C 31.96875 22.496094 31.917969 22.699219 31.753906 22.773438 C 31.914062 22.828125 32.042969 22.828125 32.128906 22.777344 C 32.296875 22.675781 32.285156 22.40625 32.285156 22.394531 C 32.28125 22.375 32.207031 21.855469 31.664062 21.496094 C 31.628906 21.441406 31.589844 21.390625 31.539062 21.347656 C 31.527344 21.335938 31.507812 21.320312 31.492188 21.308594 C 31.511719 21.289062 31.542969 21.277344 31.570312 21.292969 C 32.324219 21.683594 32.40625 22.351562 32.410156 22.382812 C 32.410156 22.398438 32.429688 22.742188 32.195312 22.882812 Z M 58.308594 28.542969 C 58.378906 28.539062 58.457031 28.449219 58.539062 28.300781 L 58.679688 28.300781 C 58.554688 28.535156 58.4375 28.660156 58.316406 28.667969 C 58.195312 28.671875 58.097656 28.574219 58.003906 28.367188 C 57.996094 28.34375 57.980469 28.324219 57.96875 28.300781 L 58.109375 28.300781 C 58.113281 28.304688 58.117188 28.3125 58.121094 28.316406 C 58.183594 28.464844 58.25 28.546875 58.308594 28.542969 Z M 62.019531 29.035156 C 61.894531 29.019531 61.816406 28.851562 61.757812 28.476562 C 61.546875 27.097656 60.734375 25.296875 60.121094 25.242188 C 59.914062 25.222656 59.734375 25.425781 59.589844 25.839844 C 59.527344 26.023438 59.46875 26.199219 59.410156 26.371094 L 59.410156 25.980469 C 59.429688 25.921875 59.449219 25.863281 59.472656 25.800781 C 59.636719 25.320312 59.859375 25.09375 60.132812 25.117188 C 60.859375 25.183594 61.679688 27.15625 61.878906 28.457031 C 61.945312 28.886719 62.023438 28.910156 62.035156 28.910156 C 62.152344 28.921875 62.421875 28.289062 62.621094 27.820312 C 62.625 27.808594 62.632812 27.792969 62.636719 27.777344 C 62.65625 27.847656 62.671875 27.914062 62.6875 27.984375 C 62.386719 28.691406 62.210938 29.058594 62.019531 29.035156 Z M 43.21875 30.269531 C 43.5 30.273438 43.566406 30.578125 43.621094 30.820312 C 43.65625 30.980469 43.695312 31.148438 43.777344 31.175781 C 43.824219 31.191406 43.917969 31.175781 44.109375 31.011719 C 44.367188 30.800781 44.554688 30.535156 44.71875 30.300781 C 45.066406 29.808594 45.367188 29.382812 46.09375 29.710938 C 46.285156 29.796875 46.484375 29.894531 46.675781 29.992188 C 47.507812 30.402344 48.371094 30.832031 48.734375 30.328125 C 48.910156 30.082031 48.953125 29.664062 48.996094 29.21875 C 49.027344 28.910156 49.058594 28.585938 49.144531 28.300781 L 49.273438 28.300781 C 49.183594 28.578125 49.152344 28.90625 49.121094 29.230469 C 49.074219 29.691406 49.03125 30.128906 48.835938 30.398438 C 48.410156 30.992188 47.5 30.539062 46.621094 30.101562 C 46.429688 30.007812 46.230469 29.910156 46.042969 29.828125 C 45.410156 29.539062 45.164062 29.890625 44.824219 30.371094 C 44.652344 30.613281 44.460938 30.886719 44.191406 31.109375 C 43.996094 31.273438 43.851562 31.332031 43.738281 31.292969 C 43.589844 31.242188 43.546875 31.050781 43.5 30.847656 C 43.4375 30.574219 43.386719 30.398438 43.214844 30.390625 C 42.949219 30.382812 42.886719 30.515625 42.765625 30.75 C 42.703125 30.875 42.628906 31.019531 42.507812 31.175781 C 42.484375 31.132812 42.464844 31.09375 42.441406 31.050781 C 42.535156 30.921875 42.597656 30.800781 42.652344 30.691406 C 42.777344 30.449219 42.878906 30.261719 43.21875 30.269531 Z M 51.359375 29.164062 C 51.496094 29.199219 51.664062 29.136719 51.875 28.96875 C 52.167969 28.734375 52.347656 28.503906 52.46875 28.300781 L 52.613281 28.300781 C 52.488281 28.53125 52.292969 28.792969 51.953125 29.066406 C 51.710938 29.257812 51.507812 29.332031 51.328125 29.285156 C 51.035156 29.207031 50.886719 28.839844 50.726562 28.449219 C 50.707031 28.398438 50.6875 28.347656 50.664062 28.300781 L 50.800781 28.300781 C 50.816406 28.332031 50.828125 28.367188 50.84375 28.402344 C 50.988281 28.761719 51.125 29.105469 51.359375 29.164062 Z M 15.070312 37.351562 C 15.285156 37.382812 15.46875 37.589844 15.648438 37.792969 C 15.820312 37.992188 16.003906 38.199219 16.183594 38.191406 C 16.292969 38.1875 16.40625 38.105469 16.527344 37.945312 C 16.785156 37.597656 16.90625 37.238281 17 36.949219 C 17.128906 36.566406 17.230469 36.261719 17.601562 36.332031 C 17.886719 36.386719 17.949219 36.84375 18.011719 37.28125 C 18.050781 37.566406 18.097656 37.917969 18.210938 37.953125 C 18.246094 37.960938 18.335938 37.945312 18.519531 37.726562 C 18.789062 37.40625 18.988281 36.988281 19.160156 36.617188 C 19.304688 36.308594 19.4375 36.027344 19.597656 35.832031 C 19.574219 35.910156 19.554688 35.984375 19.535156 36.058594 C 19.523438 36.109375 19.511719 36.160156 19.5 36.214844 C 19.425781 36.351562 19.351562 36.507812 19.273438 36.671875 C 19.097656 37.046875 18.898438 37.472656 18.617188 37.804688 C 18.433594 38.023438 18.296875 38.105469 18.175781 38.070312 C 17.988281 38.015625 17.941406 37.683594 17.886719 37.300781 C 17.835938 36.921875 17.777344 36.492188 17.578125 36.457031 C 17.324219 36.40625 17.253906 36.582031 17.121094 36.988281 C 17.019531 37.285156 16.898438 37.65625 16.625 38.019531 C 16.480469 38.210938 16.335938 38.308594 16.1875 38.316406 C 15.945312 38.324219 15.746094 38.097656 15.554688 37.875 C 15.390625 37.691406 15.222656 37.5 15.050781 37.476562 C 14.59375 37.414062 14.449219 38.152344 14.445312 38.164062 C 14.433594 38.214844 14.273438 38.972656 13.992188 39.640625 C 13.972656 39.574219 13.953125 39.511719 13.9375 39.445312 C 14.175781 38.816406 14.320312 38.148438 14.324219 38.140625 C 14.328125 38.101562 14.492188 37.273438 15.070312 37.351562 Z M 45.589844 37.75 C 52.25 35.875 58.578125 34.089844 63.253906 32.769531 C 63.253906 32.816406 63.253906 32.855469 63.253906 32.898438 C 58.578125 34.21875 52.269531 35.996094 45.636719 37.867188 C 45.621094 37.828125 45.605469 37.789062 45.589844 37.75 Z M 25.664062 43.355469 C 25.667969 43.398438 25.667969 43.4375 25.671875 43.480469 C 24.835938 43.71875 24.015625 43.945312 23.222656 44.167969 L 23.257812 44.027344 C 24.039062 43.8125 24.84375 43.585938 25.664062 43.355469 Z M 18.445312 45.507812 C 17.808594 45.6875 17.199219 45.859375 16.617188 46.019531 C 16.597656 45.980469 16.578125 45.945312 16.558594 45.90625 C 17.164062 45.738281 17.804688 45.558594 18.476562 45.371094 C 18.46875 45.414062 18.457031 45.460938 18.445312 45.507812 Z M 13.234375 27.046875 C 16.824219 26.046875 23.152344 24.273438 30.34375 22.25 C 30.359375 22.289062 30.375 22.328125 30.394531 22.367188 C 23.160156 24.398438 16.796875 26.183594 13.210938 27.179688 C 13.21875 27.136719 13.226562 27.089844 13.234375 27.046875 Z M 19.136719 29.980469 C 19.0625 30.0625 18.652344 29.816406 18.21875 29.429688 C 17.78125 29.042969 17.488281 28.660156 17.5625 28.578125 C 17.636719 28.496094 18.050781 28.742188 18.484375 29.128906 C 18.917969 29.515625 19.210938 29.898438 19.136719 29.980469 Z M 19.132812 29.632812 C 21.160156 29.066406 23.441406 28.425781 25.894531 27.738281 C 26.042969 27.652344 26.191406 27.566406 26.339844 27.480469 C 23.683594 28.226562 21.214844 28.921875 19.042969 29.53125 C 19.023438 29.511719 19.007812 29.492188 18.988281 29.476562 L 18.082031 28.667969 C 17.582031 28.222656 16.8125 28.269531 16.367188 28.765625 L 16.03125 29.144531 C 16.574219 30.28125 17.554688 31.15625 18.75 31.5625 L 19.085938 31.1875 C 19.484375 30.742188 19.492188 30.085938 19.132812 29.632812 Z M 13.640625 31.039062 L 13.75 31.136719 C 13.425781 31.226562 13.117188 31.3125 12.832031 31.390625 C 12.835938 31.347656 12.835938 31.304688 12.835938 31.261719 C 13.085938 31.191406 13.355469 31.117188 13.640625 31.039062 Z M 18.625 43.554688 C 17.597656 43.839844 16.644531 44.109375 15.773438 44.351562 C 15.753906 44.3125 15.738281 44.273438 15.71875 44.238281 C 16.609375 43.988281 17.585938 43.714844 18.636719 43.421875 C 18.632812 43.464844 18.628906 43.507812 18.625 43.554688 Z M 25.375 41.660156 C 24.828125 41.8125 24.292969 41.964844 23.765625 42.113281 L 23.804688 41.972656 C 24.308594 41.832031 24.820312 41.6875 25.34375 41.539062 C 25.355469 41.582031 25.363281 41.621094 25.375 41.660156 Z M 44.917969 36.164062 C 51.773438 34.234375 58.332031 32.386719 63.167969 31.019531 C 63.164062 30.980469 63.160156 30.9375 63.15625 30.894531 C 58.320312 32.257812 51.746094 34.109375 44.867188 36.046875 C 44.886719 36.085938 44.902344 36.125 44.917969 36.164062 "/>
</g>
<g clip-path="url(#clip4)" clip-rule="nonzero">
<path style=" stroke:none;fill-rule:nonzero;fill:rgb(0%,0%,0%);fill-opacity:1;" d="M 15.445312 30.054688 C 15.519531 30.027344 15.59375 30 15.667969 29.96875 C 15.738281 29.9375 15.8125 29.90625 15.882812 29.871094 C 16.015625 29.804688 16.140625 29.726562 16.238281 29.613281 L 16.214844 29.574219 L 16.105469 29.367188 L 16.058594 29.261719 L 16.035156 29.207031 L 16.019531 29.179688 L 16.015625 29.167969 L 16.011719 29.160156 L 16.011719 29.15625 L 16.007812 29.15625 C 16.019531 29.148438 15.988281 29.164062 16.03125 29.144531 C 16.074219 29.125 16.042969 29.136719 16.054688 29.132812 L 16.054688 29.140625 L 16.058594 29.144531 L 16.066406 29.160156 L 16.082031 29.183594 L 16.109375 29.234375 L 16.167969 29.335938 L 16.289062 29.53125 L 16.417969 29.722656 L 16.554688 29.910156 C 16.746094 30.152344 16.953125 30.378906 17.1875 30.582031 C 17.414062 30.785156 17.664062 30.96875 17.929688 31.128906 L 18.128906 31.242188 L 18.335938 31.347656 L 18.542969 31.449219 L 18.652344 31.492188 L 18.703125 31.515625 L 18.730469 31.527344 L 18.746094 31.53125 L 18.753906 31.535156 L 18.757812 31.535156 C 18.753906 31.550781 18.765625 31.511719 18.75 31.5625 C 18.730469 31.617188 18.742188 31.578125 18.738281 31.589844 L 18.734375 31.589844 L 18.726562 31.585938 L 18.683594 31.574219 L 18.628906 31.554688 L 18.515625 31.519531 L 18.296875 31.433594 L 18.082031 31.332031 L 17.871094 31.222656 C 17.597656 31.070312 17.339844 30.882812 17.105469 30.671875 C 16.871094 30.460938 16.65625 30.226562 16.472656 29.972656 L 16.339844 29.777344 L 16.273438 29.667969 C 16.242188 29.734375 16.199219 29.789062 16.148438 29.835938 C 16.085938 29.898438 16.011719 29.941406 15.9375 29.984375 C 15.863281 30.023438 15.785156 30.054688 15.703125 30.074219 C 15.621094 30.097656 15.539062 30.109375 15.453125 30.109375 C 15.441406 30.109375 15.429688 30.101562 15.425781 30.089844 C 15.421875 30.074219 15.429688 30.058594 15.445312 30.054688 Z M 11.492188 25.878906 C 11.554688 25.828125 11.621094 25.78125 11.691406 25.742188 C 11.699219 25.738281 11.710938 25.738281 11.71875 25.746094 C 11.726562 25.753906 11.730469 25.769531 11.722656 25.78125 C 11.671875 25.839844 11.613281 25.898438 11.566406 25.953125 C 11.515625 26.011719 11.46875 26.070312 11.433594 26.132812 C 11.398438 26.191406 11.375 26.257812 11.359375 26.328125 C 11.347656 26.398438 11.347656 26.46875 11.367188 26.539062 C 11.371094 26.550781 11.367188 26.5625 11.355469 26.570312 C 11.34375 26.578125 11.328125 26.578125 11.316406 26.5625 C 11.261719 26.496094 11.242188 26.402344 11.25 26.316406 C 11.253906 26.226562 11.28125 26.144531 11.328125 26.070312 C 11.371094 25.996094 11.429688 25.933594 11.492188 25.878906 Z M 9.558594 23.382812 C 9.601562 23.359375 9.570312 23.375 9.578125 23.371094 L 9.582031 23.371094 L 9.582031 23.375 L 9.585938 23.382812 L 9.640625 23.464844 L 9.703125 23.5625 L 9.832031 23.753906 L 9.96875 23.9375 L 10.113281 24.117188 C 10.308594 24.355469 10.519531 24.578125 10.75 24.777344 C 10.976562 24.984375 11.222656 25.164062 11.480469 25.332031 L 11.675781 25.453125 L 11.875 25.566406 L 12.078125 25.675781 L 12.183594 25.722656 L 12.261719 25.761719 L 12.273438 25.769531 L 12.28125 25.773438 L 12.285156 25.773438 C 12.28125 25.785156 12.296875 25.75 12.277344 25.800781 C 12.253906 25.855469 12.269531 25.816406 12.265625 25.828125 L 12.261719 25.828125 L 12.257812 25.824219 L 12.253906 25.824219 L 12.238281 25.816406 L 12.15625 25.785156 L 12.046875 25.742188 L 11.835938 25.648438 L 11.625 25.542969 L 11.421875 25.425781 C 11.152344 25.265625 10.902344 25.078125 10.667969 24.871094 C 10.4375 24.660156 10.21875 24.433594 10.03125 24.183594 L 9.894531 23.996094 L 9.761719 23.800781 L 9.644531 23.597656 L 9.5625 23.445312 L 9.550781 23.417969 L 9.542969 23.40625 L 9.539062 23.394531 C 9.546875 23.386719 9.515625 23.402344 9.558594 23.382812 Z M 18.132812 13.964844 C 18.164062 13.964844 18.195312 13.992188 18.195312 14.027344 L 18.195312 17.046875 C 18.195312 17.066406 18.1875 17.085938 18.171875 17.09375 L 16.824219 18.242188 C 16.8125 18.253906 16.796875 18.257812 16.785156 18.257812 C 16.765625 18.257812 16.75 18.25 16.734375 18.238281 C 16.714844 18.210938 16.71875 18.171875 16.742188 18.148438 L 18.070312 17.019531 L 18.070312 14.027344 C 18.070312 13.992188 18.097656 13.964844 18.132812 13.964844 Z M 15.859375 13.363281 C 16.300781 13.121094 16.785156 12.960938 17.28125 12.890625 C 18.277344 12.746094 19.328125 12.960938 20.171875 13.519531 C 21.015625 14.066406 21.652344 14.925781 21.929688 15.894531 C 22.210938 16.859375 22.113281 17.921875 21.683594 18.828125 C 21.257812 19.734375 20.496094 20.484375 19.570312 20.878906 C 19.109375 21.078125 18.613281 21.191406 18.113281 21.21875 C 17.613281 21.253906 17.113281 21.179688 16.636719 21.03125 C 16.621094 21.027344 16.617188 21.011719 16.621094 21 C 16.625 20.988281 16.636719 20.980469 16.648438 20.984375 C 17.121094 21.128906 17.621094 21.191406 18.109375 21.152344 C 18.601562 21.121094 19.089844 21.003906 19.539062 20.804688 C 20.441406 20.410156 21.179688 19.671875 21.59375 18.785156 C 22.007812 17.902344 22.101562 16.863281 21.820312 15.921875 C 21.550781 14.984375 20.925781 14.152344 20.105469 13.621094 C 19.289062 13.078125 18.269531 12.867188 17.300781 13.003906 C 16.8125 13.070312 16.339844 13.226562 15.910156 13.460938 C 15.480469 13.695312 15.09375 14.007812 14.773438 14.378906 C 14.128906 15.121094 13.769531 16.09375 13.769531 17.074219 C 13.765625 18.058594 14.136719 19.035156 14.789062 19.773438 C 14.800781 19.785156 14.796875 19.804688 14.789062 19.816406 C 14.777344 19.824219 14.757812 19.824219 14.746094 19.8125 C 14.078125 19.070312 13.6875 18.082031 13.679688 17.078125 C 13.671875 16.074219 14.039062 15.074219 14.695312 14.3125 C 15.023438 13.933594 15.417969 13.605469 15.859375 13.363281 Z M 52.46875 23.25 L 56.359375 23.246094 L 58.304688 23.246094 C 58.472656 23.238281 58.65625 23.292969 58.792969 23.402344 C 58.933594 23.507812 59.039062 23.664062 59.074219 23.835938 C 59.09375 23.921875 59.09375 24.011719 59.09375 24.089844 L 59.09375 24.816406 L 59.089844 26.757812 L 59.085938 27.730469 L 59.085938 27.851562 C 59.085938 27.894531 59.082031 27.9375 59.074219 27.980469 C 59.058594 28.066406 59.027344 28.148438 58.984375 28.226562 C 58.898438 28.375 58.757812 28.492188 58.59375 28.554688 C 58.511719 28.582031 58.425781 28.597656 58.339844 28.597656 L 56.636719 28.597656 L 54.691406 28.59375 L 46.90625 28.574219 C 46.894531 28.574219 46.882812 28.5625 46.882812 28.550781 C 46.882812 28.535156 46.894531 28.523438 46.90625 28.523438 L 54.691406 28.503906 L 56.636719 28.5 L 58.339844 28.5 C 58.414062 28.496094 58.488281 28.484375 58.558594 28.457031 C 58.699219 28.40625 58.820312 28.304688 58.894531 28.171875 C 58.933594 28.109375 58.957031 28.035156 58.972656 27.964844 C 58.980469 27.925781 58.980469 27.890625 58.980469 27.851562 L 58.980469 26.757812 L 58.976562 24.816406 L 58.976562 24.089844 C 58.976562 24.007812 58.976562 23.933594 58.957031 23.863281 C 58.894531 23.570312 58.609375 23.347656 58.304688 23.367188 L 56.359375 23.367188 L 52.46875 23.359375 L 50.519531 23.359375 L 49.550781 23.355469 L 48.820312 23.355469 C 48.738281 23.355469 48.65625 23.351562 48.582031 23.363281 C 48.28125 23.398438 48.03125 23.675781 48.023438 23.980469 L 48.023438 24.949219 L 48.015625 26.890625 C 48.015625 26.898438 48.011719 26.910156 48.003906 26.917969 L 46.703125 28.152344 C 46.691406 28.164062 46.671875 28.164062 46.660156 28.152344 C 46.652344 28.140625 46.652344 28.125 46.664062 28.113281 L 47.9375 26.875 L 47.929688 24.949219 L 47.929688 23.976562 C 47.933594 23.625 48.21875 23.308594 48.570312 23.265625 C 48.65625 23.253906 48.738281 23.257812 48.820312 23.257812 L 49.0625 23.257812 L 49.550781 23.253906 L 50.519531 23.253906 Z M 62.796875 21.824219 L 58.261719 21.828125 L 53.726562 21.820312 L 51.460938 21.816406 L 50.894531 21.816406 C 50.796875 21.816406 50.707031 21.820312 50.601562 21.808594 C 50.503906 21.792969 50.40625 21.757812 50.320312 21.703125 C 50.148438 21.597656 50.023438 21.421875 49.980469 21.222656 C 49.972656 21.175781 49.964844 21.125 49.964844 21.074219 L 49.964844 20.648438 L 49.972656 18.386719 L 49.976562 17.257812 C 49.972656 17.0625 50.042969 16.859375 50.183594 16.71875 C 50.320312 16.578125 50.515625 16.492188 50.710938 16.496094 C 50.726562 16.496094 50.742188 16.507812 50.738281 16.523438 C 50.738281 16.539062 50.726562 16.550781 50.710938 16.550781 C 50.53125 16.550781 50.351562 16.628906 50.226562 16.761719 C 50.101562 16.894531 50.039062 17.074219 50.042969 17.257812 L 50.050781 18.386719 L 50.058594 20.648438 L 50.058594 21.074219 C 50.058594 21.117188 50.066406 21.160156 50.074219 21.203125 C 50.109375 21.378906 50.21875 21.53125 50.371094 21.621094 C 50.445312 21.667969 50.53125 21.699219 50.617188 21.710938 C 50.703125 21.722656 50.800781 21.71875 50.894531 21.71875 L 51.460938 21.71875 L 53.726562 21.714844 L 58.261719 21.707031 L 62.652344 21.707031 L 61.03125 20.148438 C 61.023438 20.136719 61.015625 20.125 61.015625 20.109375 L 61.019531 17.25 C 61.03125 17.023438 60.914062 16.804688 60.730469 16.679688 C 60.636719 16.621094 60.527344 16.582031 60.417969 16.574219 C 60.304688 16.570312 60.179688 16.574219 60.0625 16.570312 L 58.632812 16.570312 L 52.902344 16.546875 C 52.886719 16.546875 52.878906 16.539062 52.878906 16.523438 C 52.878906 16.511719 52.886719 16.5 52.902344 16.5 L 58.632812 16.480469 L 60.0625 16.476562 C 60.183594 16.476562 60.296875 16.472656 60.425781 16.480469 C 60.550781 16.484375 60.675781 16.53125 60.785156 16.601562 C 60.996094 16.738281 61.128906 16.996094 61.121094 17.25 L 61.125 20.085938 L 62.835938 21.726562 C 62.847656 21.734375 62.855469 21.75 62.855469 21.765625 C 62.855469 21.800781 62.828125 21.824219 62.796875 21.824219 Z M 40.5 16.839844 C 40.335938 17.183594 40.035156 17.386719 39.660156 17.433594 C 39.890625 17.722656 39.953125 18.144531 39.816406 18.480469 C 39.738281 18.660156 39.570312 18.832031 39.375 18.953125 C 39.492188 19.085938 39.566406 19.273438 39.566406 19.476562 C 39.566406 19.882812 39.28125 20.214844 38.925781 20.214844 C 38.914062 20.214844 38.902344 20.210938 38.894531 20.210938 C 38.914062 19.984375 38.929688 19.761719 38.9375 19.554688 C 38.9375 19.507812 38.9375 19.464844 38.9375 19.417969 C 38.921875 19.417969 38.910156 19.421875 38.894531 19.421875 C 38.664062 19.421875 38.449219 19.242188 38.339844 18.988281 C 38.3125 18.929688 38.289062 18.859375 38.273438 18.789062 C 38.257812 18.792969 38.242188 18.796875 38.226562 18.796875 C 37.894531 18.796875 37.621094 18.527344 37.621094 18.191406 C 37.621094 18.152344 37.628906 18.113281 37.636719 18.074219 C 37.261719 18.085938 36.828125 17.898438 36.707031 17.546875 C 36.546875 17.71875 36.304688 17.796875 36.074219 17.75 C 35.84375 17.707031 35.574219 17.589844 35.476562 17.371094 C 35.175781 17.714844 34.457031 18.015625 34.054688 17.777344 C 34.269531 18.410156 34.0625 19.023438 33.433594 19.160156 C 33.242188 19.617188 32.832031 19.914062 32.355469 20.023438 C 32.621094 20.40625 32.191406 21.191406 31.796875 21.402344 C 31.75 21.429688 31.699219 21.449219 31.644531 21.464844 C 31.613281 21.425781 31.578125 21.382812 31.539062 21.347656 C 31.371094 21.191406 31.125 21.109375 30.898438 21.152344 C 30.78125 21.175781 30.675781 21.230469 30.589844 21.304688 C 30.386719 21.179688 30.21875 21.011719 30.125 20.808594 C 29.53125 20.71875 28.949219 19.96875 28.875 19.355469 C 28.5 19.476562 28.042969 19.324219 27.796875 18.992188 C 27.550781 18.660156 27.507812 18.152344 27.730469 17.820312 C 27.503906 17.589844 27.40625 17.242188 27.484375 16.933594 C 27.558594 16.628906 27.835938 16.511719 28.136719 16.433594 C 27.867188 15.878906 28.074219 15.007812 28.515625 14.613281 C 28.296875 14.289062 28.242188 13.855469 28.375 13.496094 C 28.503906 13.136719 28.808594 12.878906 29.175781 12.796875 C 29.105469 12.480469 29.183594 12.140625 29.382812 11.898438 C 29.585938 11.660156 29.914062 11.59375 30.230469 11.621094 C 30.101562 11.214844 30.589844 10.71875 31.003906 10.710938 C 31.203125 10.015625 32.125 9.714844 32.789062 10.007812 C 32.925781 9.78125 33.070312 9.542969 33.300781 9.417969 C 33.53125 9.292969 34.035156 9.441406 34.160156 9.683594 C 34.34375 9.417969 34.679688 9.265625 35.003906 9.304688 C 35.328125 9.34375 35.664062 9.417969 35.800781 9.726562 C 36.21875 9.53125 36.808594 9.605469 37.164062 9.925781 C 37.707031 10.015625 38.125 10.640625 38.003906 11.1875 C 38.550781 11.15625 38.921875 11.613281 39.183594 12.117188 C 39.492188 12.097656 39.769531 12.371094 39.871094 12.675781 C 39.976562 12.980469 39.871094 13.332031 39.839844 13.648438 C 40.257812 13.648438 40.597656 14.0625 40.679688 14.484375 C 40.761719 14.90625 40.574219 15.3125 40.464844 15.722656 C 40.652344 16.066406 40.664062 16.496094 40.5 16.839844 Z M 38.476562 60.886719 L 41.5 59.9375 L 44.527344 58.996094 L 50.585938 57.113281 L 56.648438 55.257812 L 59.679688 54.328125 L 62.714844 53.410156 C 62.726562 53.40625 62.738281 53.414062 62.742188 53.425781 C 62.746094 53.4375 62.742188 53.449219 62.726562 53.457031 L 59.703125 54.40625 L 56.675781 55.351562 L 50.621094 57.234375 L 41.527344 60.023438 L 38.492188 60.941406 C 38.476562 60.945312 38.460938 60.9375 38.457031 60.921875 C 38.453125 60.910156 38.460938 60.890625 38.476562 60.886719 Z M 27.46875 56.480469 L 38.003906 60.84375 L 40.640625 42.582031 C 40.644531 42.558594 40.660156 42.539062 40.6875 42.53125 L 66.71875 35.679688 C 66.734375 35.675781 66.746094 35.683594 66.75 35.695312 C 66.753906 35.707031 66.746094 35.722656 66.734375 35.722656 L 40.753906 42.640625 L 38.09375 60.921875 C 38.09375 60.925781 38.089844 60.929688 38.089844 60.933594 C 38.078125 60.957031 38.050781 60.972656 38.023438 60.960938 L 27.445312 56.53125 C 27.433594 56.527344 27.425781 56.507812 27.433594 56.496094 C 27.4375 56.480469 27.453125 56.472656 27.46875 56.480469 Z M 33.585938 41.339844 C 33.570312 41.332031 33.566406 41.316406 33.574219 41.300781 C 33.804688 40.921875 34.011719 40.53125 34.199219 40.132812 C 34.390625 39.734375 34.558594 39.328125 34.707031 38.914062 C 34.855469 38.5 34.980469 38.074219 35.085938 37.644531 C 35.191406 37.21875 35.277344 36.785156 35.339844 36.347656 C 35.339844 36.335938 35.351562 36.324219 35.363281 36.324219 C 35.378906 36.328125 35.386719 36.339844 35.386719 36.351562 C 35.351562 36.792969 35.285156 37.234375 35.1875 37.667969 C 35.09375 38.105469 34.96875 38.53125 34.824219 38.953125 C 34.671875 39.371094 34.5 39.785156 34.300781 40.183594 C 34.101562 40.582031 33.875 40.964844 33.621094 41.332031 C 33.613281 41.34375 33.597656 41.347656 33.585938 41.339844 Z M 29.484375 54.136719 C 29.523438 54.160156 29.558594 54.1875 29.589844 54.214844 C 29.621094 54.246094 29.648438 54.28125 29.675781 54.3125 C 29.703125 54.347656 29.726562 54.386719 29.746094 54.425781 C 29.765625 54.464844 29.785156 54.503906 29.796875 54.546875 C 29.796875 54.554688 29.796875 54.5625 29.792969 54.570312 C 29.78125 54.578125 29.765625 54.582031 29.757812 54.574219 C 29.71875 54.546875 29.691406 54.515625 29.660156 54.484375 C 29.628906 54.457031 29.605469 54.421875 29.578125 54.390625 C 29.550781 54.355469 29.527344 54.324219 29.503906 54.289062 C 29.480469 54.25 29.457031 54.214844 29.441406 54.171875 C 29.4375 54.164062 29.4375 54.15625 29.441406 54.148438 C 29.453125 54.132812 29.46875 54.128906 29.484375 54.136719 Z M 35.472656 53.875 C 35.414062 53.78125 35.363281 53.679688 35.308594 53.582031 C 35.257812 53.480469 35.210938 53.378906 35.164062 53.277344 C 35.117188 53.171875 35.074219 53.070312 35.035156 52.964844 C 34.992188 52.859375 34.953125 52.753906 34.917969 52.644531 C 34.917969 52.632812 34.921875 52.625 34.929688 52.617188 C 34.941406 52.609375 34.957031 52.613281 34.964844 52.625 C 35.023438 52.722656 35.078125 52.820312 35.128906 52.921875 C 35.183594 53.019531 35.230469 53.121094 35.277344 53.222656 C 35.324219 53.328125 35.371094 53.429688 35.410156 53.535156 C 35.453125 53.640625 35.492188 53.746094 35.527344 53.851562 C 35.527344 53.863281 35.523438 53.878906 35.511719 53.886719 C 35.5 53.894531 35.480469 53.890625 35.472656 53.875 Z M 33.867188 52.5 C 33.878906 52.496094 33.894531 52.503906 33.898438 52.519531 C 33.90625 52.554688 33.910156 52.585938 33.914062 52.613281 L 33.945312 52.792969 C 33.949219 52.820312 33.957031 52.851562 33.957031 52.886719 L 33.960938 52.886719 C 33.960938 52.894531 33.957031 52.902344 33.953125 52.910156 C 33.941406 52.921875 33.921875 52.925781 33.910156 52.914062 C 33.878906 52.890625 33.859375 52.859375 33.839844 52.828125 C 33.824219 52.796875 33.8125 52.757812 33.808594 52.722656 C 33.800781 52.683594 33.800781 52.648438 33.808594 52.609375 C 33.816406 52.574219 33.828125 52.539062 33.851562 52.507812 C 33.855469 52.503906 33.859375 52.5 33.867188 52.5 Z M 33.003906 52.878906 C 32.898438 52.753906 32.800781 52.628906 32.691406 52.511719 C 32.585938 52.398438 32.46875 52.289062 32.335938 52.214844 C 32.207031 52.132812 32.058594 52.085938 31.90625 52.050781 C 31.753906 52.019531 31.59375 52 31.433594 51.976562 C 31.417969 51.976562 31.410156 51.964844 31.40625 51.949219 C 31.40625 51.933594 31.417969 51.921875 31.433594 51.921875 C 31.597656 51.914062 31.761719 51.917969 31.925781 51.941406 C 32.089844 51.964844 32.253906 52.019531 32.402344 52.105469 C 32.546875 52.199219 32.667969 52.316406 32.773438 52.445312 C 32.875 52.574219 32.964844 52.710938 33.042969 52.851562 C 33.046875 52.863281 33.046875 52.875 33.035156 52.882812 C 33.027344 52.890625 33.011719 52.890625 33.003906 52.878906 Z M 30.078125 52.773438 C 30.132812 52.796875 30.183594 52.832031 30.230469 52.871094 C 30.277344 52.910156 30.320312 52.953125 30.359375 53 C 30.394531 53.050781 30.429688 53.101562 30.449219 53.15625 C 30.453125 53.164062 30.453125 53.175781 30.445312 53.183594 C 30.4375 53.191406 30.421875 53.195312 30.410156 53.183594 L 30.28125 53.074219 C 30.238281 53.039062 30.195312 53 30.152344 52.96875 C 30.109375 52.933594 30.066406 52.902344 30.019531 52.867188 C 29.976562 52.832031 29.929688 52.800781 29.882812 52.765625 C 29.875 52.757812 29.871094 52.75 29.871094 52.738281 C 29.875 52.722656 29.890625 52.710938 29.90625 52.714844 C 29.964844 52.722656 30.023438 52.746094 30.078125 52.773438 Z M 39.753906 32.375 C 39.714844 32.421875 39.671875 32.46875 39.621094 32.503906 C 39.613281 32.507812 39.601562 32.507812 39.589844 32.503906 C 39.578125 32.496094 39.570312 32.480469 39.578125 32.464844 L 39.660156 32.316406 C 39.6875 32.265625 39.714844 32.214844 39.738281 32.164062 C 39.761719 32.113281 39.78125 32.0625 39.804688 32.011719 L 39.867188 31.851562 C 39.871094 31.84375 39.878906 31.835938 39.890625 31.835938 C 39.902344 31.835938 39.914062 31.84375 39.917969 31.855469 C 39.921875 31.917969 39.917969 31.980469 39.90625 32.042969 C 39.894531 32.101562 39.875 32.160156 39.851562 32.21875 C 39.824219 32.273438 39.792969 32.328125 39.753906 32.375 Z M 32.652344 29.015625 C 32.644531 29.003906 32.644531 28.988281 32.65625 28.980469 C 32.667969 28.96875 32.6875 28.96875 32.695312 28.980469 C 32.847656 29.15625 33.015625 29.308594 33.203125 29.4375 C 33.390625 29.570312 33.589844 29.679688 33.804688 29.757812 C 34.015625 29.84375 34.234375 29.894531 34.460938 29.925781 C 34.6875 29.953125 34.917969 29.953125 35.144531 29.925781 C 35.15625 29.921875 35.167969 29.929688 35.171875 29.941406 C 35.175781 29.957031 35.167969 29.96875 35.15625 29.972656 C 34.925781 30.03125 34.6875 30.046875 34.453125 30.027344 C 34.214844 30.011719 33.980469 29.957031 33.757812 29.875 C 33.539062 29.785156 33.328125 29.671875 33.136719 29.527344 C 32.949219 29.382812 32.78125 29.210938 32.652344 29.015625 Z M 22.128906 44.28125 C 22.066406 44.25 22.003906 44.222656 21.941406 44.199219 C 21.875 44.175781 21.8125 44.15625 21.746094 44.144531 C 21.683594 44.128906 21.617188 44.117188 21.550781 44.109375 C 21.484375 44.105469 21.414062 44.105469 21.34375 44.105469 C 21.332031 44.105469 21.324219 44.097656 21.316406 44.085938 C 21.3125 44.070312 21.320312 44.054688 21.332031 44.046875 C 21.402344 44.019531 21.476562 44.003906 21.550781 44 C 21.625 43.996094 21.703125 44.003906 21.777344 44.019531 C 21.847656 44.039062 21.921875 44.066406 21.984375 44.105469 C 22.050781 44.140625 22.109375 44.1875 22.15625 44.246094 C 22.164062 44.253906 22.164062 44.261719 22.160156 44.269531 C 22.15625 44.285156 22.140625 44.289062 22.128906 44.28125 Z M 21.566406 44.328125 C 21.765625 44.355469 21.957031 44.421875 22.132812 44.519531 C 22.304688 44.617188 22.464844 44.738281 22.609375 44.875 C 22.679688 44.9375 22.742188 45.007812 22.800781 45.085938 C 22.78125 44.988281 22.753906 44.894531 22.714844 44.804688 C 22.632812 44.625 22.503906 44.460938 22.324219 44.371094 C 22.3125 44.363281 22.304688 44.347656 22.308594 44.332031 C 22.316406 44.320312 22.332031 44.3125 22.347656 44.316406 C 22.550781 44.398438 22.710938 44.570312 22.804688 44.761719 C 22.894531 44.941406 22.9375 45.136719 22.949219 45.335938 C 22.953125 45.347656 22.953125 45.363281 22.953125 45.378906 C 22.953125 45.382812 22.953125 45.382812 22.953125 45.386719 L 22.949219 45.386719 C 22.949219 45.390625 22.949219 45.394531 22.949219 45.402344 C 22.945312 45.429688 22.921875 45.449219 22.894531 45.449219 C 22.859375 45.453125 22.832031 45.425781 22.832031 45.394531 L 22.832031 45.386719 C 22.832031 45.378906 22.832031 45.371094 22.832031 45.363281 C 22.828125 45.355469 22.828125 45.347656 22.824219 45.339844 C 22.816406 45.320312 22.804688 45.300781 22.792969 45.28125 C 22.769531 45.246094 22.742188 45.207031 22.714844 45.171875 C 22.65625 45.097656 22.589844 45.027344 22.523438 44.960938 C 22.386719 44.832031 22.238281 44.714844 22.074219 44.621094 C 21.914062 44.527344 21.738281 44.449219 21.554688 44.417969 C 21.371094 44.386719 21.175781 44.394531 20.996094 44.457031 C 20.984375 44.460938 20.972656 44.457031 20.96875 44.445312 C 20.960938 44.433594 20.96875 44.417969 20.980469 44.414062 C 21.160156 44.328125 21.367188 44.300781 21.566406 44.328125 Z M 24.535156 39.261719 C 24.5625 39.15625 24.59375 39.050781 24.628906 38.945312 C 24.667969 38.84375 24.707031 38.738281 24.753906 38.640625 C 24.757812 38.628906 24.769531 38.625 24.777344 38.625 C 24.792969 38.625 24.800781 38.640625 24.800781 38.652344 C 24.785156 38.761719 24.761719 38.871094 24.738281 38.976562 C 24.71875 39.058594 24.695312 39.136719 24.671875 39.214844 C 24.71875 39.214844 24.761719 39.214844 24.804688 39.214844 C 24.871094 39.207031 24.929688 39.195312 24.988281 39.15625 C 25 39.148438 25.011719 39.152344 25.023438 39.160156 C 25.035156 39.167969 25.035156 39.1875 25.027344 39.199219 C 24.976562 39.261719 24.894531 39.300781 24.816406 39.316406 C 24.738281 39.332031 24.664062 39.332031 24.597656 39.339844 C 24.589844 39.339844 24.582031 39.339844 24.574219 39.335938 C 24.542969 39.328125 24.523438 39.292969 24.53125 39.261719 Z M 22.742188 30.058594 C 22.742188 30.042969 22.75 30.03125 22.761719 30.027344 C 22.945312 29.988281 23.144531 30.007812 23.324219 30.070312 C 23.503906 30.132812 23.667969 30.238281 23.8125 30.363281 C 23.953125 30.488281 24.074219 30.636719 24.171875 30.792969 C 24.273438 30.953125 24.355469 31.117188 24.425781 31.289062 C 24.429688 31.300781 24.425781 31.316406 24.414062 31.324219 C 24.402344 31.332031 24.382812 31.328125 24.375 31.3125 C 24.277344 31.160156 24.183594 31.003906 24.082031 30.855469 C 23.976562 30.710938 23.863281 30.570312 23.730469 30.453125 C 23.601562 30.332031 23.449219 30.238281 23.285156 30.171875 C 23.125 30.101562 22.949219 30.066406 22.769531 30.074219 C 22.757812 30.074219 22.746094 30.070312 22.742188 30.058594 Z M 24.917969 38.121094 C 24.90625 38.113281 24.902344 38.097656 24.910156 38.085938 C 25.191406 37.582031 25.40625 37.042969 25.550781 36.484375 C 25.695312 35.925781 25.773438 35.351562 25.765625 34.777344 C 25.765625 34.203125 25.6875 33.628906 25.535156 33.074219 C 25.386719 32.515625 25.164062 31.980469 24.878906 31.476562 C 24.871094 31.464844 24.875 31.445312 24.890625 31.4375 C 24.902344 31.429688 24.921875 31.433594 24.929688 31.449219 C 25.238281 31.941406 25.480469 32.480469 25.644531 33.042969 C 25.804688 33.605469 25.886719 34.191406 25.890625 34.777344 C 25.890625 35.363281 25.8125 35.949219 25.652344 36.511719 C 25.496094 37.074219 25.257812 37.617188 24.953125 38.109375 C 24.945312 38.121094 24.929688 38.125 24.917969 38.121094 Z M 39.425781 39.023438 C 39.496094 38.761719 39.5625 38.5 39.636719 38.242188 C 39.640625 38.230469 39.652344 38.222656 39.664062 38.226562 C 39.679688 38.226562 39.6875 38.238281 39.683594 38.253906 C 39.640625 38.519531 39.585938 38.78125 39.53125 39.046875 C 39.476562 39.308594 39.414062 39.570312 39.355469 39.835938 L 39.167969 40.621094 C 39.101562 40.878906 39.035156 41.140625 38.957031 41.398438 C 38.953125 41.414062 38.941406 41.421875 38.925781 41.417969 C 38.910156 41.417969 38.902344 41.402344 38.902344 41.386719 C 38.949219 41.121094 39.003906 40.859375 39.058594 40.59375 L 39.234375 39.804688 C 39.300781 39.542969 39.359375 39.28125 39.425781 39.023438 Z M 38.722656 30.066406 C 38.738281 30.0625 38.75 30.070312 38.753906 30.082031 C 38.953125 30.652344 39.144531 31.226562 39.320312 31.804688 C 39.363281 31.957031 39.40625 32.105469 39.449219 32.257812 C 39.472656 32.121094 39.5 31.984375 39.523438 31.847656 C 39.546875 31.695312 39.570312 31.542969 39.585938 31.390625 C 39.601562 31.242188 39.613281 31.089844 39.621094 30.933594 C 39.628906 30.78125 39.632812 30.628906 39.636719 30.472656 C 39.636719 30.464844 39.644531 30.453125 39.65625 30.453125 C 39.667969 30.449219 39.679688 30.457031 39.683594 30.472656 C 39.710938 30.625 39.722656 30.78125 39.726562 30.9375 C 39.730469 31.09375 39.722656 31.25 39.710938 31.40625 C 39.691406 31.5625 39.667969 31.714844 39.632812 31.867188 C 39.597656 32.019531 39.550781 32.171875 39.496094 32.316406 C 39.488281 32.328125 39.480469 32.332031 39.46875 32.332031 C 39.578125 32.742188 39.671875 33.152344 39.753906 33.566406 C 39.863281 34.164062 39.9375 34.769531 39.945312 35.378906 C 39.957031 35.984375 39.90625 36.59375 39.773438 37.1875 C 39.773438 37.199219 39.757812 37.210938 39.742188 37.207031 C 39.726562 37.203125 39.714844 37.191406 39.71875 37.175781 C 39.824219 36.582031 39.855469 35.980469 39.835938 35.378906 C 39.816406 34.78125 39.742188 34.183594 39.632812 33.589844 C 39.523438 33 39.375 32.414062 39.21875 31.835938 C 39.054688 31.253906 38.882812 30.675781 38.710938 30.097656 C 38.707031 30.085938 38.710938 30.070312 38.722656 30.066406 Z M 31.785156 23.875 C 31.710938 23.898438 31.652344 23.957031 31.613281 24.023438 C 31.578125 24.089844 31.558594 24.167969 31.542969 24.25 C 31.527344 24.335938 31.519531 24.421875 31.492188 24.515625 C 31.464844 24.601562 31.417969 24.695312 31.339844 24.753906 C 31.328125 24.761719 31.316406 24.761719 31.304688 24.753906 C 31.292969 24.746094 31.289062 24.726562 31.296875 24.714844 L 31.300781 24.714844 C 31.34375 24.644531 31.371094 24.570312 31.382812 24.488281 L 31.421875 24.230469 C 31.4375 24.140625 31.464844 24.042969 31.527344 23.964844 C 31.585938 23.886719 31.679688 23.820312 31.78125 23.828125 C 31.792969 23.828125 31.800781 23.835938 31.804688 23.84375 C 31.808594 23.859375 31.800781 23.871094 31.789062 23.875 Z M 32.078125 24.257812 C 32.089844 24.261719 32.097656 24.273438 32.097656 24.285156 C 32.097656 24.296875 32.085938 24.308594 32.070312 24.304688 C 31.960938 24.300781 31.863281 24.359375 31.796875 24.4375 C 31.734375 24.515625 31.695312 24.621094 31.667969 24.730469 C 31.640625 24.835938 31.621094 24.957031 31.589844 25.066406 C 31.5625 25.179688 31.53125 25.292969 31.492188 25.40625 C 31.488281 25.417969 31.476562 25.425781 31.464844 25.425781 C 31.449219 25.425781 31.4375 25.410156 31.4375 25.394531 C 31.445312 25.277344 31.464844 25.160156 31.480469 25.046875 C 31.5 24.929688 31.519531 24.816406 31.546875 24.699219 C 31.578125 24.582031 31.625 24.457031 31.722656 24.367188 C 31.8125 24.277344 31.953125 24.21875 32.078125 24.257812 Z M 32.300781 24.8125 C 32.308594 24.816406 32.316406 24.824219 32.316406 24.832031 C 32.316406 24.84375 32.304688 24.855469 32.292969 24.859375 C 32.175781 24.863281 32.085938 24.945312 32.035156 25.039062 C 32.007812 25.085938 31.992188 25.140625 31.976562 25.199219 C 31.960938 25.257812 31.949219 25.320312 31.929688 25.382812 C 31.925781 25.390625 31.917969 25.398438 31.90625 25.402344 C 31.890625 25.40625 31.875 25.394531 31.871094 25.378906 C 31.863281 25.3125 31.859375 25.246094 31.867188 25.179688 C 31.871094 25.113281 31.890625 25.042969 31.925781 24.976562 C 31.964844 24.914062 32.015625 24.855469 32.085938 24.824219 C 32.152344 24.792969 32.234375 24.78125 32.300781 24.8125 Z M 32.628906 25.132812 C 32.640625 25.132812 32.648438 25.140625 32.652344 25.148438 C 32.65625 25.160156 32.648438 25.175781 32.636719 25.179688 C 32.480469 25.230469 32.375 25.367188 32.324219 25.515625 C 32.300781 25.589844 32.285156 25.671875 32.273438 25.757812 L 32.246094 26.015625 C 32.246094 26.027344 32.238281 26.035156 32.226562 26.039062 C 32.210938 26.042969 32.195312 26.03125 32.191406 26.015625 C 32.171875 25.929688 32.164062 25.839844 32.164062 25.75 C 32.164062 25.660156 32.175781 25.566406 32.207031 25.476562 C 32.242188 25.386719 32.292969 25.300781 32.367188 25.238281 C 32.4375 25.175781 32.535156 25.128906 32.628906 25.132812 Z M 32.980469 25.445312 C 32.992188 25.445312 33 25.457031 33 25.464844 C 33.003906 25.480469 32.992188 25.492188 32.980469 25.492188 L 32.976562 25.492188 C 32.875 25.5 32.789062 25.578125 32.742188 25.667969 C 32.695312 25.757812 32.664062 25.871094 32.628906 25.976562 L 32.523438 26.304688 C 32.492188 26.414062 32.460938 26.523438 32.425781 26.632812 C 32.421875 26.644531 32.410156 26.652344 32.394531 26.652344 C 32.378906 26.652344 32.367188 26.636719 32.367188 26.621094 C 32.375 26.503906 32.394531 26.390625 32.417969 26.277344 C 32.441406 26.160156 32.472656 26.050781 32.507812 25.9375 C 32.546875 25.832031 32.582031 25.71875 32.652344 25.609375 C 32.722656 25.507812 32.847656 25.417969 32.980469 25.445312 Z M 31.097656 26.164062 C 31.09375 25.949219 31.109375 25.734375 31.15625 25.523438 C 31.15625 25.511719 31.167969 25.503906 31.179688 25.507812 C 31.191406 25.507812 31.203125 25.519531 31.203125 25.53125 C 31.1875 25.742188 31.183594 25.949219 31.203125 26.160156 C 31.222656 26.367188 31.253906 26.574219 31.308594 26.773438 C 31.359375 26.972656 31.429688 27.171875 31.515625 27.359375 C 31.601562 27.550781 31.703125 27.730469 31.816406 27.910156 C 31.824219 27.921875 31.824219 27.9375 31.8125 27.945312 C 31.800781 27.957031 31.785156 27.953125 31.773438 27.941406 C 31.632812 27.78125 31.515625 27.601562 31.414062 27.40625 C 31.316406 27.214844 31.242188 27.011719 31.1875 26.804688 C 31.136719 26.59375 31.105469 26.378906 31.097656 26.164062 Z M 35.976562 26.382812 C 35.910156 26.351562 35.835938 26.332031 35.761719 26.3125 C 35.75 26.308594 35.742188 26.296875 35.742188 26.285156 C 35.746094 26.269531 35.757812 26.261719 35.769531 26.265625 C 35.847656 26.277344 35.925781 26.289062 36 26.320312 C 36.074219 26.347656 36.15625 26.394531 36.199219 26.480469 C 36.238281 26.566406 36.226562 26.65625 36.214844 26.734375 C 36.199219 26.816406 36.175781 26.890625 36.160156 26.964844 C 36.089844 27.253906 36.117188 27.558594 36.183594 27.855469 C 36.242188 28.15625 36.332031 28.460938 36.339844 28.777344 C 36.34375 28.9375 36.332031 29.097656 36.296875 29.25 C 36.253906 29.40625 36.191406 29.554688 36.105469 29.6875 C 36.097656 29.699219 36.082031 29.703125 36.070312 29.695312 C 36.054688 29.691406 36.050781 29.671875 36.058594 29.660156 C 36.199219 29.386719 36.253906 29.085938 36.230469 28.785156 C 36.214844 28.480469 36.125 28.1875 36.058594 27.882812 C 36 27.578125 35.96875 27.246094 36.054688 26.9375 C 36.078125 26.859375 36.101562 26.789062 36.121094 26.714844 C 36.136719 26.644531 36.144531 26.574219 36.121094 26.515625 C 36.097656 26.457031 36.042969 26.414062 35.976562 26.382812 Z M 35.753906 24.226562 C 35.710938 24.238281 35.667969 24.242188 35.621094 24.246094 C 35.574219 24.253906 35.527344 24.253906 35.484375 24.253906 C 35.300781 24.253906 35.125 24.191406 34.980469 24.082031 C 34.855469 23.992188 34.757812 23.871094 34.652344 23.75 C 34.753906 23.769531 34.855469 23.789062 34.960938 23.800781 C 35.148438 23.824219 35.335938 23.828125 35.523438 23.828125 C 35.714844 23.824219 35.902344 23.8125 36.089844 23.78125 C 36.167969 23.769531 36.242188 23.753906 36.320312 23.738281 C 36.269531 23.902344 36.144531 24.027344 36.003906 24.113281 C 35.921875 24.160156 35.839844 24.199219 35.753906 24.226562 Z M 35.632812 24.367188 C 35.683594 24.359375 35.734375 24.355469 35.785156 24.335938 C 35.882812 24.304688 35.976562 24.261719 36.058594 24.203125 C 36.144531 24.144531 36.21875 24.074219 36.277344 23.988281 C 36.328125 23.910156 36.367188 23.820312 36.375 23.726562 C 36.464844 23.707031 36.554688 23.683594 36.640625 23.65625 C 36.652344 23.652344 36.660156 23.640625 36.65625 23.628906 C 36.652344 23.617188 36.640625 23.609375 36.628906 23.609375 C 36.445312 23.636719 36.261719 23.660156 36.078125 23.675781 C 35.890625 23.691406 35.707031 23.707031 35.523438 23.703125 C 35.339844 23.710938 35.15625 23.703125 34.96875 23.691406 C 34.785156 23.679688 34.601562 23.660156 34.417969 23.636719 C 34.402344 23.636719 34.386719 23.648438 34.386719 23.664062 C 34.382812 23.675781 34.390625 23.6875 34.40625 23.691406 C 34.453125 23.707031 34.503906 23.714844 34.550781 23.726562 C 34.601562 23.800781 34.652344 23.875 34.707031 23.949219 C 34.765625 24.027344 34.832031 24.105469 34.910156 24.171875 C 35.066406 24.300781 35.277344 24.375 35.480469 24.378906 C 35.53125 24.375 35.582031 24.375 35.632812 24.367188 Z M 36.503906 22.046875 L 36.449219 21.5 C 36.449219 21.488281 36.457031 21.476562 36.46875 21.472656 C 36.480469 21.472656 36.496094 21.480469 36.496094 21.492188 C 36.542969 21.671875 36.578125 21.851562 36.609375 22.03125 C 36.636719 22.214844 36.65625 22.394531 36.675781 22.578125 C 36.683594 22.671875 36.695312 22.761719 36.6875 22.863281 C 36.679688 22.96875 36.609375 23.082031 36.515625 23.128906 C 36.425781 23.183594 36.316406 23.195312 36.21875 23.1875 C 36.121094 23.175781 36.03125 23.148438 35.945312 23.117188 C 35.933594 23.113281 35.925781 23.101562 35.925781 23.085938 C 35.929688 23.070312 35.945312 23.0625 35.960938 23.0625 C 36.136719 23.097656 36.324219 23.125 36.457031 23.035156 C 36.523438 22.992188 36.5625 22.929688 36.566406 22.851562 C 36.574219 22.773438 36.558594 22.679688 36.554688 22.589844 C 36.539062 22.410156 36.519531 22.226562 36.503906 22.046875 Z M 38.433594 20.191406 C 38.386719 20.101562 38.332031 20.015625 38.265625 19.941406 C 38.203125 19.867188 38.128906 19.796875 38.050781 19.734375 C 37.972656 19.675781 37.886719 19.625 37.800781 19.578125 C 37.710938 19.535156 37.613281 19.503906 37.515625 19.480469 C 37.503906 19.476562 37.492188 19.464844 37.492188 19.453125 C 37.492188 19.4375 37.503906 19.421875 37.519531 19.421875 C 37.628906 19.417969 37.738281 19.441406 37.839844 19.476562 C 37.945312 19.515625 38.042969 19.570312 38.128906 19.636719 C 38.214844 19.707031 38.292969 19.785156 38.351562 19.878906 C 38.410156 19.96875 38.457031 20.070312 38.480469 20.175781 C 38.480469 20.183594 38.476562 20.195312 38.46875 20.203125 C 38.457031 20.207031 38.441406 20.203125 38.433594 20.191406 Z M 34.527344 19.5 C 34.371094 19.542969 34.21875 19.601562 34.082031 19.6875 C 33.941406 19.769531 33.816406 19.871094 33.707031 19.988281 C 33.59375 20.105469 33.5 20.242188 33.417969 20.386719 C 33.414062 20.398438 33.398438 20.402344 33.386719 20.398438 C 33.371094 20.394531 33.363281 20.378906 33.367188 20.363281 C 33.421875 20.199219 33.511719 20.050781 33.621094 19.917969 C 33.734375 19.785156 33.871094 19.671875 34.019531 19.582031 C 34.171875 19.496094 34.335938 19.429688 34.503906 19.398438 C 34.675781 19.367188 34.851562 19.363281 35.019531 19.394531 C 35.03125 19.394531 35.039062 19.40625 35.039062 19.417969 C 35.039062 19.429688 35.027344 19.441406 35.015625 19.441406 C 34.847656 19.441406 34.6875 19.460938 34.527344 19.5 Z M 37.261719 21.488281 C 37.195312 21.480469 37.132812 21.46875 37.070312 21.457031 C 37.007812 21.445312 36.941406 21.429688 36.878906 21.410156 C 36.871094 21.40625 36.863281 21.398438 36.863281 21.386719 C 36.863281 21.375 36.875 21.363281 36.890625 21.363281 C 37.019531 21.371094 37.144531 21.382812 37.269531 21.382812 C 37.398438 21.390625 37.523438 21.390625 37.648438 21.386719 C 37.773438 21.382812 37.898438 21.371094 38.023438 21.359375 C 38.148438 21.34375 38.273438 21.320312 38.394531 21.292969 L 38.398438 21.292969 C 38.410156 21.289062 38.421875 21.292969 38.429688 21.304688 C 38.4375 21.320312 38.429688 21.335938 38.417969 21.34375 C 38.296875 21.40625 38.171875 21.441406 38.042969 21.464844 C 37.914062 21.492188 37.785156 21.503906 37.652344 21.511719 C 37.523438 21.511719 37.390625 21.507812 37.261719 21.488281 Z M 35.339844 21.160156 C 35.351562 21.15625 35.367188 21.160156 35.375 21.167969 C 35.386719 21.179688 35.382812 21.199219 35.371094 21.207031 C 35.25 21.308594 35.105469 21.375 34.957031 21.421875 C 34.8125 21.472656 34.65625 21.496094 34.5 21.507812 C 34.347656 21.511719 34.191406 21.507812 34.039062 21.476562 C 33.964844 21.464844 33.890625 21.441406 33.816406 21.425781 C 33.742188 21.402344 33.667969 21.375 33.597656 21.347656 C 33.589844 21.34375 33.582031 21.332031 33.582031 21.320312 C 33.585938 21.308594 33.597656 21.300781 33.613281 21.300781 C 33.761719 21.328125 33.90625 21.359375 34.054688 21.371094 C 34.199219 21.390625 34.347656 21.390625 34.496094 21.382812 C 34.640625 21.375 34.785156 21.351562 34.925781 21.316406 C 35.070312 21.28125 35.210938 21.230469 35.339844 21.164062 Z M 38.40625 25.796875 C 38.761719 25.796875 39.054688 25.507812 39.054688 25.148438 C 39.054688 24.792969 38.761719 24.503906 38.40625 24.503906 C 38.050781 24.503906 37.757812 24.792969 37.757812 25.148438 C 37.757812 25.507812 38.050781 25.796875 38.40625 25.796875 "/>
</g>
</g>
</svg>
