<?xml version="1.0" encoding="UTF-8"?>
<svg xmlns="http://www.w3.org/2000/svg" xmlns:xlink="http://www.w3.org/1999/xlink" width="75pt" height="74.999997pt" viewBox="0 0 75 74.999997" version="1.2">
<defs>
<clipPath id="clip1">
  <path d="M 38 35 L 52.714844 35 L 52.714844 50 L 38 50 Z M 38 35 "/>
</clipPath>
<clipPath id="clip2">
  <path d="M 24 41 L 49 41 L 49 53.25 L 24 53.25 Z M 24 41 "/>
</clipPath>
<clipPath id="clip3">
  <path d="M 22.773438 30 L 30 30 L 30 45 L 22.773438 45 Z M 22.773438 30 "/>
</clipPath>
<clipPath id="clip4">
  <path d="M 24 22.5 L 49 22.5 L 49 35 L 24 35 Z M 24 22.5 "/>
</clipPath>
</defs>
<g id="surface1">
<g clip-path="url(#clip1)" clip-rule="nonzero">
<path style=" stroke:none;fill-rule:nonzero;fill:rgb(25.878906%,52.159119%,95.689392%);fill-opacity:1;" d="M 52.683594 38.289062 C 52.683594 37.019531 52.582031 36.089844 52.359375 35.132812 L 38.046875 35.132812 L 38.046875 40.863281 L 46.449219 40.863281 C 46.28125 42.289062 45.363281 44.433594 43.332031 45.875 L 43.304688 46.066406 L 47.828125 49.617188 L 48.140625 49.648438 C 51.023438 46.957031 52.683594 42.992188 52.683594 38.289062 "/>
</g>
<g clip-path="url(#clip2)" clip-rule="nonzero">
<path style=" stroke:none;fill-rule:nonzero;fill:rgb(20.388794%,65.879822%,32.548523%);fill-opacity:1;" d="M 38.046875 53.390625 C 42.164062 53.390625 45.617188 52.019531 48.140625 49.648438 L 43.332031 45.875 C 42.042969 46.785156 40.316406 47.417969 38.046875 47.417969 C 34.015625 47.417969 30.59375 44.726562 29.375 41 L 29.195312 41.015625 L 24.488281 44.707031 L 24.429688 44.878906 C 26.933594 49.925781 32.085938 53.390625 38.046875 53.390625 "/>
</g>
<g clip-path="url(#clip3)" clip-rule="nonzero">
<path style=" stroke:none;fill-rule:nonzero;fill:rgb(98.429871%,73.728943%,1.959229%);fill-opacity:1;" d="M 29.375 41 C 29.050781 40.039062 28.867188 39.007812 28.867188 37.945312 C 28.867188 36.882812 29.050781 35.851562 29.355469 34.890625 L 29.347656 34.6875 L 24.585938 30.9375 L 24.429688 31.011719 C 23.394531 33.105469 22.800781 35.457031 22.800781 37.945312 C 22.800781 40.433594 23.394531 42.785156 24.429688 44.878906 L 29.375 41 "/>
</g>
<g clip-path="url(#clip4)" clip-rule="nonzero">
<path style=" stroke:none;fill-rule:nonzero;fill:rgb(92.158508%,26.269531%,20.779419%);fill-opacity:1;" d="M 38.046875 28.472656 C 40.910156 28.472656 42.839844 29.726562 43.941406 30.773438 L 48.242188 26.515625 C 45.601562 24.027344 42.164062 22.5 38.046875 22.5 C 32.085938 22.5 26.933594 25.964844 24.429688 31.011719 L 29.355469 34.890625 C 30.59375 31.167969 34.015625 28.472656 38.046875 28.472656 "/>
</g>
</g>
</svg>
